<svg width="180" height="180" viewBox="0 0 180 180" fill="none" xmlns="http://www.w3.org/2000/svg">
  <rect width="180" height="180" rx="32" fill="#F3F2F0"/>
  <circle cx="50" cy="70" r="38" fill="#FFE6A7"/>
  <circle cx="120" cy="120" r="36" fill="#B7D3DC"/>
  <circle cx="150" cy="40" r="18" fill="#E8BD98"/>
  <!-- Adobe icons -->
  <g>
    <rect x="30" y="40" width="28" height="28" rx="14" fill="#2D2DFF"/>
    <text x="44" y="60" text-anchor="middle" font-size="14" font-family="Arial" fill="#fff">Ae</text>
    <rect x="135" y="30" width="22" height="22" rx="11" fill="#FFB900"/>
    <text x="146" y="45" text-anchor="middle" font-size="11" font-family="Arial" fill="#fff">Ai</text>
    <rect x="40" y="110" width="24" height="24" rx="12" fill="#0077C2"/>
    <text x="52" y="127" text-anchor="middle" font-size="12" font-family="Arial" fill="#fff">Ps</text>
    <rect x="120" y="140" width="20" height="20" rx="10" fill="#D100A7"/>
    <text x="130" y="155" text-anchor="middle" font-size="10" font-family="Arial" fill="#fff">Xd</text>
  </g>
  <!-- Person silhouette -->
  <g>
    <ellipse cx="90" cy="110" rx="22" ry="32" fill="#BCAAA4"/>
    <rect x="78" y="80" width="24" height="38" rx="12" fill="#8D6748"/>
    <rect x="85" y="120" width="10" height="28" rx="5" fill="#8D6748"/>
    <rect x="70" y="120" width="10" height="28" rx="5" fill="#8D6748"/>
    <rect x="100" y="120" width="10" height="28" rx="5" fill="#8D6748"/>
    <rect x="90" y="60" width="18" height="24" rx="9" fill="#E8BD98"/>
    <rect x="92" y="70" width="14" height="10" rx="5" fill="#BCAAA4"/>
  </g>
</svg>
