<?xml version="1.0" encoding="UTF-8"?><svg xmlns="http://www.w3.org/2000/svg" viewBox="0 0 400 400" width="400" height="400"><defs><radialGradient id="bgGrad" cx="50%" cy="50%" r="70%">
                    <stop offset="0%" stop-color="#FFFFFF" />
                    <stop offset="60%" stop-color="#E2E8F0" />
                    <stop offset="100%" stop-color="#CBD5E1" />
                 </radialGradient><radialGradient id="skinGrad" cx="40%" cy="40%" r="65%">
                    <stop offset="0%" stop-color="#aa6749" />
                    <stop offset="40%" stop-color="#8e563d" />
                    <stop offset="85%" stop-color="#6a402d" />
                    <stop offset="100%" stop-color="#553324" />
                 </radialGradient><radialGradient id="eyeSclera" cx="50%" cy="40%" r="60%">
                    <stop offset="0%" stop-color="#FFFFFF" />
                    <stop offset="80%" stop-color="#F1F5F9" />
                    <stop offset="100%" stop-color="#CBD5E1" />
                 </radialGradient><radialGradient id="irisGrad" cx="50%" cy="50%" r="50%">
                    <stop offset="0%" stop-color="#8b5830" />
                    <stop offset="40%" stop-color="#6B4425" />
                    <stop offset="80%" stop-color="#352212" />
                    <stop offset="100%" stop-color="#0F172A" />
                 </radialGradient><linearGradient id="hoodieMain" x1="0%" y1="0%" x2="0%" y2="100%">
                    <stop offset="0%" stop-color="#334155" />
                    <stop offset="100%" stop-color="#0F172A" />
                 </linearGradient><linearGradient id="hoodieShadow" x1="0%" y1="0%" x2="0%" y2="100%">
                    <stop offset="0%" stop-color="#1E293B" />
                    <stop offset="100%" stop-color="#020617" />
                 </linearGradient><linearGradient id="metal" x1="0%" y1="0%" x2="100%" y2="100%">
                    <stop offset="0%" stop-color="#F1F5F9" />
                    <stop offset="50%" stop-color="#94A3B8" />
                    <stop offset="100%" stop-color="#475569" />
                 </linearGradient><filter id="dropShadow" x="-20%" y="-20%" width="140%" height="140%">
                    <feDropShadow dx="0" dy="12" stdDeviation="10" flood-color="#000000" flood-opacity="0.25" />
                 </filter><filter id="softShadow" x="-20%" y="-20%" width="140%" height="140%">
                    <feGaussianBlur in="SourceAlpha" stdDeviation="4"/>
                    <feOffset dx="0" dy="4" result="offsetblur"/>
                    <feComponentTransfer><feFuncA type="linear" slope="0.3"/></feComponentTransfer>
                    <feMerge> 
                        <feMergeNode/>
                        <feMergeNode in="SourceGraphic"/>
                    </feMerge>
                 </filter><filter id="blur">
                    <feGaussianBlur stdDeviation="3" />
                 </filter><clipPath id="leftEyeClip">
                    <path d="M125 155 C 140 140, 160 140, 175 155 C 160 165, 140 165, 125 155 Z"/>
                 </clipPath><clipPath id="rightEyeClip">
                    <path d="M225 155 C 240 140, 260 140, 275 155 C 260 165, 240 165, 225 155 Z"/>
                 </clipPath></defs><rect width="400" height="400" fill="url(#bgGrad)"/><path d="M90 240 C 60 300, 40 400, 40 400 L 360 400 C 360 400, 340 300, 310 240 C 260 170, 140 170, 90 240 Z" fill="url(#hoodieShadow)"/><path d="M40 400 C 40 330, 90 280, 160 280 L 160 400 Z" fill="url(#hoodieMain)" filter="url(#dropShadow)"/><path d="M360 400 C 360 330, 310 280, 240 280 L 240 400 Z" fill="url(#hoodieMain)" filter="url(#dropShadow)"/><path d="M160 280 C 200 300, 200 400, 160 400 Z" fill="url(#hoodieShadow)"/><path d="M240 280 C 200 300, 200 400, 240 400 Z" fill="url(#hoodieShadow)"/><rect x="198" y="300" width="4" height="100" fill="url(#metal)"/><rect x="196" y="295" width="8" height="15" rx="3" fill="url(#metal)"/><path d="M110 280 C 130 330, 180 340, 200 340 C 220 340, 270 330, 290 280 C 310 330, 320 400, 320 400 L 80 400 C 80 400, 90 330, 110 280 Z" fill="#1E293B" filter="url(#dropShadow)"/><path d="M170 340 C 165 370, 175 390, 175 390" fill="none" stroke="#E2E8F0" stroke-width="6" stroke-linecap="round" filter="url(#softShadow)"/><path d="M230 340 C 235 370, 225 390, 225 390" fill="none" stroke="#E2E8F0" stroke-width="6" stroke-linecap="round" filter="url(#softShadow)"/><rect x="172" y="380" width="6" height="12" rx="2" fill="url(#metal)" transform="rotate(-15 175 380)"/><rect x="222" y="380" width="6" height="12" rx="2" fill="url(#metal)" transform="rotate(15 225 380)"/><rect x="165" y="220" width="70" height="80" rx="20" fill="#6a402d"/><path d="M165 220 Q 200 280 235 220 L 235 260 Q 200 300 165 260 Z" fill="#553324"/><path d="M195 270 Q 200 280 205 270" fill="none" stroke="#553324" stroke-width="3" stroke-linecap="round" filter="url(#blur)"/><path d="M90 150 C 90 10, 310 10, 310 150" fill="none" stroke="url(#metal)" stroke-width="24" filter="url(#dropShadow)"/><path d="M100 150 C 100 20, 300 20, 300 150" fill="none" stroke="#0F172A" stroke-width="16"/><path d="M110 150 C 110 30, 290 30, 290 150" fill="none" stroke="#334155" stroke-width="10"/><path d="M125 150 C 100 150, 100 200, 125 210 Z" fill="url(#skinGrad)" filter="url(#dropShadow)"/><path d="M120 165 C 110 165, 110 190, 120 195" fill="none" stroke="#6a402d" stroke-width="4" stroke-linecap="round"/><path d="M275 150 C 300 150, 300 200, 275 210 Z" fill="url(#skinGrad)" filter="url(#dropShadow)"/><path d="M280 165 C 290 165, 290 190, 280 195" fill="none" stroke="#6a402d" stroke-width="4" stroke-linecap="round"/><path d="M120 130 C 120 30, 280 30, 280 130 C 280 240, 245 280, 200 280 C 155 280, 120 240, 120 130 Z" fill="url(#skinGrad)" filter="url(#dropShadow)"/><path d="M125 130 C 125 40, 200 35, 200 35 C 135 45, 130 130, 130 200 C 130 230, 150 260, 200 275 C 150 270, 125 230, 125 130 Z" fill="#cd7c58" opacity="0.6" filter="url(#blur)"/><ellipse cx="150" cy="180" rx="15" ry="10" fill="#FFFFFF" opacity="0.15" filter="url(#blur)" transform="rotate(-15 150 180)"/><ellipse cx="250" cy="180" rx="15" ry="10" fill="#FFFFFF" opacity="0.15" filter="url(#blur)" transform="rotate(15 250 180)"/><ellipse cx="200" cy="80" rx="30" ry="15" fill="#FFFFFF" opacity="0.15" filter="url(#blur)"/><ellipse cx="200" cy="265" rx="12" ry="6" fill="#FFFFFF" opacity="0.1" filter="url(#blur)"/><path d="M120 170 C 120 240, 155 280, 200 280 C 245 280, 280 240, 280 170 C 275 190, 250 210, 200 210 C 150 210, 125 190, 120 170 Z" fill="#5d4231" opacity="0.4" filter="url(#blur)"/><path d="M120 185 C 120 250, 160 280, 200 280 C 240 280, 280 250, 280 185 C 270 200, 240 230, 200 230 C 160 230, 130 200, 120 185 Z" fill="#5d4231" filter="url(#softShadow)"/><path d="M130 200 C 160 230, 240 230, 270 200 C 240 240, 160 240, 130 200 Z" fill="#f3ac80" opacity="0.15"/><path d="M155 225 C 175 210, 225 210, 245 225 C 225 235, 175 235, 155 225 Z" fill="#5d4231" filter="url(#softShadow)"/><path d="M165 225 C 185 215, 215 215, 235 225 C 215 230, 185 230, 165 225 Z" fill="#704f3b"/><path d="M185 260 C 195 270, 205 270, 215 260 L 205 280 L 195 280 Z" fill="#5d4231"/><path d="M165 238 C 190 250, 210 250, 235 238 C 210 245, 190 245, 165 238 Z" fill="#4A0E0E"/><path d="M175 240 C 190 245, 210 245, 225 240 C 210 243, 190 243, 175 240 Z" fill="#FFFFFF" opacity="0.8"/><path d="M165 238 C 190 255, 210 255, 235 238 C 210 248, 190 248, 165 238 Z" fill="#D98880"/><path d="M185 246 C 195 250, 205 250, 215 246 C 205 248, 195 248, 185 246 Z" fill="#FFFFFF" opacity="0.4"/><path d="M180 195 C 190 210, 210 210, 220 195 C 210 200, 190 200, 180 195 Z" fill="#553324" opacity="0.6" filter="url(#blur)"/><path d="M185 185 C 180 200, 220 200, 215 185 C 205 170, 195 170, 185 185 Z" fill="url(#skinGrad)"/><ellipse cx="188" cy="195" rx="4" ry="2" fill="#553324" transform="rotate(-15 188 195)"/><ellipse cx="212" cy="195" rx="4" ry="2" fill="#553324" transform="rotate(15 212 195)"/><path d="M198 150 Q 200 170 198 185 L 202 185 Q 200 170 202 150 Z" fill="#FFFFFF" opacity="0.3" filter="url(#blur)"/><circle cx="200" cy="188" r="4" fill="#FFFFFF" opacity="0.5" filter="url(#blur)"/><ellipse cx="150" cy="155" rx="22" ry="15" fill="#6a402d" opacity="0.5" filter="url(#blur)"/><path d="M125 155 C 140 140, 160 140, 175 155 C 160 165, 140 165, 125 155 Z" fill="url(#eyeSclera)" filter="url(#softShadow)"/><g clip-path="url(#leftEyeClip)"><circle cx="150" cy="155" r="11" fill="url(#irisGrad)"/><circle cx="150" cy="155" r="5" fill="#020617"/><rect x="144" y="148" width="4" height="4" rx="1" fill="#FFFFFF" opacity="0.9" transform="rotate(-15 146 150)"/><rect x="149" y="148" width="4" height="4" rx="1" fill="#FFFFFF" opacity="0.9" transform="rotate(-15 151 150)"/><circle cx="154" cy="159" r="1.5" fill="#FFFFFF" opacity="0.5"/></g><circle cx="128" cy="157" r="2" fill="#ECA9A9" opacity="0.8"/><path d="M120 145 C 140 130, 165 135, 180 150" fill="none" stroke="#6a402d" stroke-width="3" stroke-linecap="round"/><path d="M122 153 C 140 138, 162 140, 178 156" fill="none" stroke="#0F172A" stroke-width="4" stroke-linecap="round"/><ellipse cx="250" cy="155" rx="22" ry="15" fill="#6a402d" opacity="0.5" filter="url(#blur)"/><path d="M225 155 C 240 140, 260 140, 275 155 C 260 165, 240 165, 225 155 Z" fill="url(#eyeSclera)" filter="url(#softShadow)"/><g clip-path="url(#rightEyeClip)"><circle cx="250" cy="155" r="11" fill="url(#irisGrad)"/><circle cx="250" cy="155" r="5" fill="#020617"/><rect x="244" y="148" width="4" height="4" rx="1" fill="#FFFFFF" opacity="0.9" transform="rotate(-15 246 150)"/><rect x="249" y="148" width="4" height="4" rx="1" fill="#FFFFFF" opacity="0.9" transform="rotate(-15 251 150)"/><circle cx="254" cy="159" r="1.5" fill="#FFFFFF" opacity="0.5"/></g><circle cx="272" cy="157" r="2" fill="#ECA9A9" opacity="0.8"/><path d="M220 150 C 235 135, 260 130, 280 145" fill="none" stroke="#6a402d" stroke-width="3" stroke-linecap="round"/><path d="M222 156 C 238 140, 260 138, 278 153" fill="none" stroke="#0F172A" stroke-width="4" stroke-linecap="round"/><path d="M125 135 C 145 120, 170 125, 185 135" fill="none" stroke="#6a402d" stroke-width="12" stroke-linecap="round" filter="url(#blur)"/><path d="M125 130 C 145 115, 170 120, 185 130" fill="none" stroke="#5d4231" stroke-width="10" stroke-linecap="round"/><path d="M130 130 C 145 118, 165 122, 175 130" fill="none" stroke="#f3ac80" stroke-width="3" stroke-linecap="round" opacity="0.4"/><path d="M275 135 C 255 120, 230 125, 215 135" fill="none" stroke="#6a402d" stroke-width="12" stroke-linecap="round" filter="url(#blur)"/><path d="M275 130 C 255 115, 230 120, 215 130" fill="none" stroke="#5d4231" stroke-width="10" stroke-linecap="round"/><path d="M270 130 C 255 118, 235 122, 225 130" fill="none" stroke="#f3ac80" stroke-width="3" stroke-linecap="round" opacity="0.4"/><path d="M110 110 C 120 70, 160 50, 200 50 C 240 50, 280 70, 290 110 C 260 80, 200 70, 110 110 Z" fill="#553324" filter="url(#blur)" opacity="0.8"/><path d="M110 140 C 100 80, 140 20, 200 20 C 260 20, 300 80, 290 140 C 270 100, 200 80, 110 140 Z" fill="#704f3b"/><path d="M115 120 C 110 60, 150 30, 200 30 C 250 30, 290 60, 285 120 C 250 80, 190 70, 115 120 Z" fill="#bb8563" filter="url(#dropShadow)"/><path d="M125 110 C 130 70, 160 50, 200 50 C 230 50, 260 70, 265 100 C 240 75, 190 65, 125 110 Z" fill="#f3ac80" opacity="0.6"/><path d="M135 100 C 140 70, 170 60, 200 60 C 210 60, 230 65, 240 80 C 220 70, 180 70, 135 100 Z" fill="#FFFFFF" opacity="0.2" filter="url(#blur)"/><path d="M115 115 C 160 80, 220 80, 260 120 C 230 90, 170 95, 115 115 Z" fill="#bb8563" filter="url(#softShadow)"/><path d="M125 110 C 160 85, 210 85, 240 110 C 210 95, 170 95, 125 110 Z" fill="#f3ac80" opacity="0.8"/><g filter="url(#dropShadow)"><rect x="85" y="120" width="40" height="85" rx="20" fill="#E2E8F0"/><rect x="90" y="125" width="30" height="75" rx="15" fill="#FFFFFF"/><path d="M105 130 C 115 140, 115 185, 105 195" fill="none" stroke="#F1F5F9" stroke-width="6" stroke-linecap="round"/><path d="M95 135 C 105 145, 105 180, 95 190" fill="none" stroke="#E2E8F0" stroke-width="4" stroke-linecap="round"/></g><rect x="100" y="110" width="10" height="15" rx="2" fill="url(#metal)"/><g filter="url(#dropShadow)"><rect x="275" y="120" width="40" height="85" rx="20" fill="#E2E8F0"/><rect x="280" y="125" width="30" height="75" rx="15" fill="#FFFFFF"/><path d="M295 130 C 285 140, 285 185, 295 195" fill="none" stroke="#F1F5F9" stroke-width="6" stroke-linecap="round"/><path d="M305 135 C 295 145, 295 180, 305 190" fill="none" stroke="#E2E8F0" stroke-width="4" stroke-linecap="round"/></g><rect x="290" y="110" width="10" height="15" rx="2" fill="url(#metal)"/></svg>