<?xml version="1.0" encoding="UTF-8"?><svg xmlns="http://www.w3.org/2000/svg" viewBox="0 0 400 400" width="400" height="400" style="background: #ffffff; border-radius: 20px;"><defs><linearGradient id="faceShadow" x1="0%" y1="0%" x2="0%" y2="100%">
                    <stop offset="80%" stop-color="#bd8f74" />
                    <stop offset="100%" stop-color="#aa8068" />
                 </linearGradient><filter id="softShadow" x="-20%" y="-20%" width="140%" height="140%">
                    <feDropShadow dx="0" dy="4" stdDeviation="6" flood-color="#000000" flood-opacity="0.1" />
                 </filter></defs><circle cx="200" cy="180" r="160" fill="#f8fafc" /><path d="M 100 300 Q 200 260 300 300 L 340 400 L 60 400 Z" fill="#1e293b" /><rect x="175" y="260" width="50" height="60" rx="10" fill="#aa8068" /><path d="M 115 150 C 115 60, 285 60, 285 150 C 285 260, 245 295, 200 295 C 155 295, 115 260, 115 150 Z" fill="url(#faceShadow)" filter="url(#softShadow)" /><circle cx="112" cy="190" r="15" fill="#aa8068" /><circle cx="288" cy="190" r="15" fill="#aa8068" /><g transform="translate(155, 175)"><ellipse cx="0" cy="0" rx="24" ry="14" fill="#ffffff" /><circle cx="0" cy="2" r="11" fill="#6B4425" /><circle cx="0" cy="2" r="5" fill="#000000" /><circle cx="-5" cy="-3" r="4" fill="#ffffff" opacity="0.8" /><path d="M -24 -2 Q 0 -18 24 -2" fill="none" stroke="#000000" stroke-width="2" opacity="0.6" /></g><g transform="translate(245, 175)"><ellipse cx="0" cy="0" rx="24" ry="14" fill="#ffffff" /><circle cx="0" cy="2" r="11" fill="#6B4425" /><circle cx="0" cy="2" r="5" fill="#000000" /><circle cx="-5" cy="-3" r="4" fill="#ffffff" opacity="0.8" /><path d="M -24 -2 Q 0 -18 24 -2" fill="none" stroke="#000000" stroke-width="2" opacity="0.6" /></g><path d="M 194 210 Q 200 218 206 210" fill="none" stroke="#aa8068" stroke-width="2" stroke-linecap="round" /><path d="M 115 190 Q 115 295 200 295 Q 285 295 285 190 Q 200 210 115 190" fill="#bf9075" /><path d="M 175 235 Q 200 225 225 235 Q 200 245 175 235" fill="#bf9075" /><path d="M 115 150 C 115 50, 285 50, 285 150 Q 200 120 115 150 Z" fill="#bf9075" /><path d="M 130 145 Q 155 130 180 145" fill="none" stroke="#bf9075" stroke-width="6" stroke-linecap="round" /><path d="M 220 145 Q 245 130 270 145" fill="none" stroke="#bf9075" stroke-width="6" stroke-linecap="round" /><path d="M 175 260 Q 200 275 225 260" fill="none" stroke="#aa8068" stroke-width="2" stroke-linecap="round" /><path d="M 60 400 Q 100 280 200 280 Q 300 280 340 400 Z" fill="#1e293b" /><path d="M 160 280 Q 200 310 240 280 L 255 290 Q 200 320 145 290 Z" fill="#334155" /><path d="M 188 300 L 186 395" fill="none" stroke="#94a3b8" stroke-width="3" /><path d="M 212 300 L 214 395" fill="none" stroke="#94a3b8" stroke-width="3" /></svg>