<?xml version="1.0" encoding="UTF-8"?><svg xmlns="http://www.w3.org/2000/svg" viewBox="0 0 400 400" width="400" height="400"><defs><linearGradient id="bgGrad" x1="0%" y1="0%" x2="0%" y2="100%">
                    <stop offset="0%" stop-color="#EBEBEB" />
                    <stop offset="100%" stop-color="#D4D4D4" />
                 </linearGradient><radialGradient id="skinGrad" cx="50%" cy="45%" r="60%">
                    <stop offset="0%" stop-color="#ffc29b" />
                    <stop offset="50%" stop-color="#efa987" />
                    <stop offset="100%" stop-color="#bf876c" />
                 </radialGradient><linearGradient id="hoodieGrad" x1="0%" y1="0%" x2="0%" y2="100%">
                    <stop offset="0%" stop-color="#333333" />
                    <stop offset="100%" stop-color="#111111" />
                 </linearGradient><filter id="shadow" x="-10%" y="-10%" width="120%" height="120%">
                    <feDropShadow dx="0" dy="8" stdDeviation="5" flood-opacity="0.3" />
                 </filter></defs><rect width="400" height="400" fill="url(#bgGrad)"/><path d="M110 260 C 80 300, 70 400, 70 400 L 330 400 C 330 400, 320 300, 290 260 C 250 200, 150 200, 110 260 Z" fill="#222"/><path d="M60 400 C 60 330, 110 290, 160 290 L 240 290 C 290 290, 340 330, 340 400 Z" fill="url(#hoodieGrad)" filter="url(#shadow)"/><path d="M120 290 C 140 340, 180 360, 200 360 C 220 360, 260 340, 280 290 C 300 340, 320 400, 320 400 L 80 400 C 80 400, 100 340, 120 290 Z" fill="#282828" filter="url(#shadow)"/><path d="M180 360 L 182 400 M 220 360 L 218 400" stroke="#E0E0E0" stroke-width="4" stroke-linecap="round"/><rect x="175" y="240" width="50" height="60" rx="10" fill="#bf876c"/><path d="M100 150 C 100 40, 300 40, 300 150" fill="none" stroke="#F5F5F5" stroke-width="20" filter="url(#shadow)"/><path d="M125 140 C 125 50, 275 50, 275 140 C 275 240, 240 270, 200 270 C 160 270, 125 240, 125 140 Z" fill="url(#skinGrad)" filter="url(#shadow)"/><path d="M125 180 C 125 250, 160 275, 200 275 C 240 275, 275 250, 275 180 C 270 200, 250 220, 200 220 C 150 220, 130 200, 125 180 Z" fill="#a67c62"/><path d="M165 235 C 180 225, 220 225, 235 235 C 220 240, 180 240, 165 235 Z" fill="#a67c62"/><path d="M190 260 C 195 265, 205 265, 210 260 L 205 275 L 195 275 Z" fill="#a67c62"/><path d="M145 160 C 155 150, 175 150, 185 160 C 175 168, 155 168, 145 160 Z" fill="#FFFFFF"/><path d="M215 160 C 225 150, 245 150, 255 160 C 245 168, 225 168, 215 160 Z" fill="#FFFFFF"/><circle cx="165" cy="160" r="9" fill="#6B4425"/><circle cx="235" cy="160" r="9" fill="#6B4425"/><circle cx="165" cy="160" r="4" fill="#111"/><circle cx="235" cy="160" r="4" fill="#111"/><circle cx="162" cy="157" r="2.5" fill="#FFF"/><circle cx="232" cy="157" r="2.5" fill="#FFF"/><path d="M140 140 C 155 130, 175 135, 185 142" fill="none" stroke="#a67c62" stroke-width="8" stroke-linecap="round"/><path d="M260 140 C 245 130, 225 135, 215 142" fill="none" stroke="#a67c62" stroke-width="8" stroke-linecap="round"/><path d="M190 195 C 195 205, 205 205, 210 195" fill="none" stroke="#bf876c" stroke-width="5" stroke-linecap="round"/><path d="M175 245 C 190 255, 210 255, 225 245 C 210 250, 190 250, 175 245 Z" fill="#D27979"/><path d="M125 120 C 120 70, 160 40, 200 40 C 240 40, 280 70, 275 120 C 250 80, 200 70, 125 120 Z" fill="#eeb28d"/><path d="M130 110 C 160 60, 220 60, 250 110 C 220 80, 180 80, 130 110 Z" fill="#a67c62" opacity="0.3"/><rect x="95" y="130" width="35" height="70" rx="17" fill="#FFFFFF" filter="url(#shadow)"/><path d="M110 135 C 120 145, 120 185, 110 195 C 100 185, 100 145, 110 135 Z" fill="#EEEEEE"/><rect x="270" y="130" width="35" height="70" rx="17" fill="#FFFFFF" filter="url(#shadow)"/><path d="M290 135 C 280 145, 280 185, 290 195 C 300 185, 300 145, 290 135 Z" fill="#EEEEEE"/></svg>