<?xml version="1.0" encoding="UTF-8"?><svg xmlns="http://www.w3.org/2000/svg" viewBox="0 0 400 400" width="400" height="400" style="background: #ffffff; border-radius: 20px;"><defs><radialGradient id="skinGrad" cx="50%" cy="35%" r="65%">
                    <stop offset="0%" stop-color="#fffdec" />
                    <stop offset="70%" stop-color="#ead3c5" />
                    <stop offset="100%" stop-color="#c6b3a7" />
                 </radialGradient><radialGradient id="eyeSclera" cx="50%" cy="50%" r="50%">
                    <stop offset="85%" stop-color="#ffffff" />
                    <stop offset="100%" stop-color="#f1f5f9" />
                 </radialGradient><radialGradient id="irisGrad" cx="50%" cy="50%" r="50%">
                    <stop offset="0%" stop-color="#80512c" />
                    <stop offset="100%" stop-color="#6B4425" />
                 </radialGradient><linearGradient id="beardFade" x1="0%" y1="0%" x2="0%" y2="100%">
                    <stop offset="0%" stop-color="#805f4f" stop-opacity="0" />
                    <stop offset="20%" stop-color="#805f4f" stop-opacity="1" />
                    <stop offset="100%" stop-color="#805f4f" />
                 </linearGradient><linearGradient id="hoodieGrad" x1="0%" y1="0%" x2="0%" y2="100%">
                    <stop offset="0%" stop-color="#334155" />
                    <stop offset="100%" stop-color="#1e293b" />
                 </linearGradient><filter id="softShadow" x="-20%" y="-20%" width="140%" height="140%">
                    <feDropShadow dx="0" dy="8" stdDeviation="12" flood-color="#000000" flood-opacity="0.15" />
                 </filter><clipPath id="eyeClip">
                    <ellipse cx="0" cy="0" rx="26" ry="16" />
                 </clipPath></defs><circle cx="200" cy="180" r="160" fill="#f8fafc" /><path d="M 100 300 Q 200 260 300 300 L 340 400 L 60 400 Z" fill="#1e293b" /><path d="M 165 260 L 235 260 Q 235 320 200 320 Q 165 320 165 260" fill="#c6b3a7" /><ellipse cx="112" cy="190" rx="14" ry="20" fill="#c6b3a7" /><ellipse cx="288" cy="190" rx="14" ry="20" fill="#c6b3a7" /><path d="M 115 160 C 115 60, 285 60, 285 160 C 285 260, 245 300, 200 300 C 155 300, 115 260, 115 160 Z" fill="url(#skinGrad)" filter="url(#softShadow)" /><g transform="translate(152, 180)"><ellipse cx="0" cy="0" rx="26" ry="16" fill="url(#eyeSclera)" /><g clip-path="url(#eyeClip)"><circle cx="0" cy="2" r="13" fill="url(#irisGrad)" /><circle cx="0" cy="2" r="6" fill="#000000" /><circle cx="-6" cy="-4" r="5" fill="#ffffff" opacity="0.8" /></g><path d="M -28 -2 Q 0 -22 28 -2" fill="none" stroke="#000000" stroke-width="2.5" stroke-linecap="round" opacity="0.8" /></g><g transform="translate(248, 180)"><ellipse cx="0" cy="0" rx="26" ry="16" fill="url(#eyeSclera)" /><g clip-path="url(#eyeClip)"><circle cx="0" cy="2" r="13" fill="url(#irisGrad)" /><circle cx="0" cy="2" r="6" fill="#000000" /><circle cx="-6" cy="-4" r="5" fill="#ffffff" opacity="0.8" /></g><path d="M -28 -2 Q 0 -22 28 -2" fill="none" stroke="#000000" stroke-width="2.5" stroke-linecap="round" opacity="0.8" /></g><path d="M 130 150 Q 150 138 170 148" fill="none" stroke="#805f4f" stroke-width="7" stroke-linecap="round" /><path d="M 230 148 Q 250 138 270 150" fill="none" stroke="#805f4f" stroke-width="7" stroke-linecap="round" /><path d="M 194 215 Q 200 224 206 215" fill="none" stroke="#a39389" stroke-width="2" stroke-linecap="round" opacity="0.4" /><path d="M 115 185 Q 115 300 200 300 Q 285 300 285 185 Q 200 215 115 185" fill="url(#beardFade)" /><path d="M 178 240 Q 200 232 222 240 Q 200 248 178 240" fill="#805f4f" /><path d="M 115 160 C 115 50, 285 50, 285 160" fill="none" stroke="#805f4f" stroke-width="15" opacity="0.1" filter="blur(5px)" /><path d="M 115 160 C 115 55, 285 55, 285 160 Q 200 130 115 160" fill="#805f4f" /><path d="M 175 262 Q 200 278 225 262" fill="none" stroke="#a39389" stroke-width="2" stroke-linecap="round" opacity="0.4" /><path d="M 60 400 Q 100 280 200 280 Q 300 280 340 400 Z" fill="url(#hoodieGrad)" /><path d="M 160 280 Q 200 310 240 280 L 255 295 Q 200 325 145 295 Z" fill="#475569" /><path d="M 188 305 L 186 395" fill="none" stroke="#94a3b8" stroke-width="3.5" stroke-linecap="round" /><path d="M 212 305 L 214 395" fill="none" stroke="#94a3b8" stroke-width="3.5" stroke-linecap="round" /></svg>