<?xml version="1.0" encoding="UTF-8"?><svg xmlns="http://www.w3.org/2000/svg" viewBox="0 0 400 400" width="400" height="400"><defs><radialGradient id="bgGrad" cx="50%" cy="40%" r="70%">
                    <stop offset="0%" stop-color="#FFFFFF" />
                    <stop offset="100%" stop-color="#E2E8F0" />
                 </radialGradient><radialGradient id="skinGrad" cx="50%" cy="40%" r="65%">
                    <stop offset="0%" stop-color="#e9aa93" />
                    <stop offset="50%" stop-color="#bb8876" />
                    <stop offset="85%" stop-color="#956c5e" />
                    <stop offset="100%" stop-color="#705146" />
                 </radialGradient><linearGradient id="eyeSclera" x1="0%" y1="0%" x2="0%" y2="100%">
                    <stop offset="0%" stop-color="#FFFFFF" />
                    <stop offset="80%" stop-color="#F8FAFC" />
                    <stop offset="100%" stop-color="#CBD5E1" />
                 </linearGradient><radialGradient id="irisGrad" cx="50%" cy="50%" r="50%">
                    <stop offset="0%" stop-color="#8b5830" />
                    <stop offset="50%" stop-color="#6B4425" />
                    <stop offset="85%" stop-color="#352212" />
                    <stop offset="100%" stop-color="#020617" />
                 </radialGradient><linearGradient id="hoodieMain" x1="0%" y1="0%" x2="0%" y2="100%">
                    <stop offset="0%" stop-color="#262626" />
                    <stop offset="100%" stop-color="#111111" />
                 </linearGradient><linearGradient id="hoodieInner" x1="0%" y1="0%" x2="0%" y2="100%">
                    <stop offset="0%" stop-color="#1A1A1A" />
                    <stop offset="100%" stop-color="#000000" />
                 </linearGradient><radialGradient id="furGrad" cx="40%" cy="30%" r="70%">
                    <stop offset="0%" stop-color="#FFFFFF" />
                    <stop offset="70%" stop-color="#F1F5F9" />
                    <stop offset="100%" stop-color="#E2E8F0" />
                 </radialGradient><filter id="dropShadow" x="-20%" y="-20%" width="140%" height="140%">
                    <feDropShadow dx="0" dy="10" stdDeviation="12" flood-color="#000000" flood-opacity="0.3" />
                 </filter><filter id="softShadow" x="-20%" y="-20%" width="140%" height="140%">
                    <feGaussianBlur in="SourceAlpha" stdDeviation="6"/>
                    <feOffset dx="0" dy="6" result="offsetblur"/>
                    <feComponentTransfer><feFuncA type="linear" slope="0.4"/></feComponentTransfer>
                    <feMerge> 
                        <feMergeNode/>
                        <feMergeNode in="SourceGraphic"/>
                    </feMerge>
                 </filter><filter id="blur">
                    <feGaussianBlur stdDeviation="4" />
                 </filter><filter id="heavyBlur">
                    <feGaussianBlur stdDeviation="12" />
                 </filter><clipPath id="leftEyeClip">
                    <path d="M125 180 C 140 165, 160 165, 175 180 C 160 190, 140 190, 125 180 Z"/>
                 </clipPath><clipPath id="rightEyeClip">
                    <path d="M225 180 C 240 165, 260 165, 275 180 C 260 190, 240 190, 225 180 Z"/>
                 </clipPath></defs><rect width="400" height="400" fill="url(#bgGrad)"/><path d="M 110 270 C 80 320, 60 400, 60 400 L 340 400 C 340 400, 320 320, 290 270 C 250 200, 150 200, 110 270 Z" fill="url(#hoodieInner)"/><rect x="155" y="240" width="90" height="90" rx="25" fill="#956c5e"/><path d="M 155 240 Q 200 320 245 240 L 245 290 Q 200 340 155 290 Z" fill="#705146"/><path d="M 100 110 C 100 -20, 300 -20, 300 110" fill="none" stroke="#F8FAFC" stroke-width="20" filter="url(#dropShadow)"/><path d="M 120 180 C 100 170, 95 210, 120 220 Z" fill="url(#skinGrad)" filter="url(#dropShadow)"/><path d="M 280 180 C 300 170, 305 210, 280 220 Z" fill="url(#skinGrad)" filter="url(#dropShadow)"/><path d="M 120 150 C 120 30, 280 30, 280 150 C 280 260, 245 295, 200 295 C 155 295, 120 260, 120 150 Z" fill="url(#skinGrad)" filter="url(#dropShadow)"/><ellipse cx="150" cy="190" rx="20" ry="15" fill="#FFFFFF" opacity="0.12" filter="url(#blur)" transform="rotate(-15 150 190)"/><ellipse cx="250" cy="190" rx="20" ry="15" fill="#FFFFFF" opacity="0.12" filter="url(#blur)" transform="rotate(15 250 190)"/><ellipse cx="200" cy="90" rx="40" ry="20" fill="#FFFFFF" opacity="0.15" filter="url(#heavyBlur)"/><ellipse cx="200" cy="280" rx="15" ry="8" fill="#FFFFFF" opacity="0.1" filter="url(#blur)"/><path d="M 120 195 C 120 260, 155 295, 200 295 C 245 295, 280 260, 280 195 C 275 220, 250 240, 200 240 C 150 240, 125 220, 120 195 Z" fill="#49362d" filter="url(#blur)" opacity="0.7"/><path d="M 125 205 C 125 250, 160 280, 200 280 C 240 280, 275 250, 275 205 C 265 230, 240 250, 200 250 C 160 250, 135 230, 125 205 Z" fill="#49362d" filter="url(#softShadow)"/><path d="M 155 240 C 175 230, 225 230, 245 240 C 225 250, 175 250, 155 240 Z" fill="#49362d" filter="url(#softShadow)"/><path d="M 185 270 C 195 280, 205 280, 215 270 L 205 290 L 195 290 Z" fill="#49362d"/><path d="M 165 255 C 185 265, 215 265, 235 255 C 215 260, 185 260, 165 255 Z" fill="#3B1010" filter="url(#blur)"/><path d="M 165 255 C 185 268, 215 268, 235 255 C 215 263, 185 263, 165 255 Z" fill="#D98880"/><path d="M 165 255 C 185 260, 215 260, 235 255 C 215 258, 185 258, 165 255 Z" fill="#B35A5A"/><path d="M 185 263 C 195 266, 205 266, 215 263 C 205 265, 195 265, 185 263 Z" fill="#FFFFFF" opacity="0.4"/><path d="M 182 205 C 190 225, 210 225, 218 205 C 210 215, 190 215, 182 205 Z" fill="#705146" opacity="0.5" filter="url(#blur)"/><path d="M 185 190 C 180 215, 220 215, 215 190 C 205 170, 195 170, 185 190 Z" fill="url(#skinGrad)" filter="url(#softShadow)"/><ellipse cx="186" cy="215" rx="5" ry="3" fill="#705146" transform="rotate(-20 186 215)"/><ellipse cx="214" cy="215" rx="5" ry="3" fill="#705146" transform="rotate(20 214 215)"/><path d="M 198 150 Q 200 180 198 200 L 202 200 Q 200 180 202 150 Z" fill="#FFFFFF" opacity="0.3" filter="url(#blur)"/><circle cx="200" cy="208" r="6" fill="#FFFFFF" opacity="0.4" filter="url(#blur)"/><ellipse cx="150" cy="180" rx="24" ry="16" fill="#956c5e" opacity="0.4" filter="url(#heavyBlur)"/><path d="M 125 180 C 140 165, 160 165, 175 180 C 160 190, 140 190, 125 180 Z" fill="url(#eyeSclera)" filter="url(#softShadow)"/><g clip-path="url(#leftEyeClip)"><circle cx="150" cy="180" r="12" fill="url(#irisGrad)"/><circle cx="150" cy="180" r="5" fill="#020617"/><circle cx="146" cy="176" r="3" fill="#FFFFFF" opacity="0.9"/><circle cx="154" cy="184" r="1.5" fill="#FFFFFF" opacity="0.5"/></g><circle cx="128" cy="182" r="2.5" fill="#ECA9A9" opacity="0.8"/><path d="M 120 170 C 140 155, 165 160, 180 175" fill="none" stroke="#956c5e" stroke-width="4" stroke-linecap="round"/><path d="M 122 178 C 140 163, 162 165, 178 181" fill="none" stroke="#0F172A" stroke-width="5" stroke-linecap="round"/><ellipse cx="250" cy="180" rx="24" ry="16" fill="#956c5e" opacity="0.4" filter="url(#heavyBlur)"/><path d="M 225 180 C 240 165, 260 165, 275 180 C 260 190, 240 190, 225 180 Z" fill="url(#eyeSclera)" filter="url(#softShadow)"/><g clip-path="url(#rightEyeClip)"><circle cx="250" cy="180" r="12" fill="url(#irisGrad)"/><circle cx="250" cy="180" r="5" fill="#020617"/><circle cx="246" cy="176" r="3" fill="#FFFFFF" opacity="0.9"/><circle cx="254" cy="184" r="1.5" fill="#FFFFFF" opacity="0.5"/></g><circle cx="272" cy="182" r="2.5" fill="#ECA9A9" opacity="0.8"/><path d="M 220 175 C 235 160, 260 155, 280 170" fill="none" stroke="#956c5e" stroke-width="4" stroke-linecap="round"/><path d="M 222 181 C 238 165, 260 163, 278 178" fill="none" stroke="#0F172A" stroke-width="5" stroke-linecap="round"/><path d="M 125 155 C 145 140, 170 145, 185 155" fill="none" stroke="#956c5e" stroke-width="14" stroke-linecap="round" filter="url(#blur)"/><path d="M 125 150 C 145 135, 170 140, 185 150" fill="none" stroke="#49362d" stroke-width="12" stroke-linecap="round"/><path d="M 275 155 C 255 140, 230 145, 215 155" fill="none" stroke="#956c5e" stroke-width="14" stroke-linecap="round" filter="url(#blur)"/><path d="M 275 150 C 255 135, 230 140, 215 150" fill="none" stroke="#49362d" stroke-width="12" stroke-linecap="round"/><path d="M 110 130 C 110 30, 290 30, 290 130 C 270 70, 130 70, 110 130 Z" fill="#49362d" filter="url(#dropShadow)"/><path d="M 115 110 C 150 20, 250 20, 285 110 C 250 50, 150 50, 115 110 Z" fill="#b78972"/><path d="M 125 90 C 160 40, 240 40, 275 90 C 240 60, 160 60, 125 90 Z" fill="#dba488" opacity="0.6"/><path d="M 150 70 C 180 30, 220 30, 250 70 C 220 50, 180 50, 150 70 Z" fill="#FFFFFF" opacity="0.2" filter="url(#blur)"/><path d="M 50 400 C 50 320, 100 270, 160 270 C 180 280, 220 280, 240 270 C 300 270, 350 320, 350 400 Z" fill="url(#hoodieMain)" filter="url(#dropShadow)"/><path d="M 130 270 C 160 330, 240 330, 270 270 C 280 320, 320 400, 350 400 L 50 400 C 80 400, 120 320, 130 270 Z" fill="#202020" filter="url(#softShadow)"/><path d="M 175 315 C 170 350, 175 400, 175 400" fill="none" stroke="#D1D5DB" stroke-width="4" stroke-linecap="round" filter="url(#dropShadow)"/><path d="M 225 315 C 230 350, 225 400, 225 400" fill="none" stroke="#D1D5DB" stroke-width="4" stroke-linecap="round" filter="url(#dropShadow)"/><rect x="173" y="380" width="4" height="15" fill="#94A3B8" rx="2"/><rect x="223" y="380" width="4" height="15" fill="#94A3B8" rx="2"/><ellipse cx="80" cy="190" rx="35" ry="60" fill="url(#furGrad)" filter="url(#dropShadow)"/><ellipse cx="320" cy="190" rx="35" ry="60" fill="url(#furGrad)" filter="url(#dropShadow)"/><ellipse cx="80" cy="190" rx="25" ry="50" fill="#FFFFFF" filter="url(#blur)"/><ellipse cx="320" cy="190" rx="25" ry="50" fill="#FFFFFF" filter="url(#blur)"/></svg>