<?xml version="1.0" encoding="UTF-8"?><svg xmlns="http://www.w3.org/2000/svg" viewBox="0 0 400 400" width="400" height="400" style="background: radial-gradient(circle at 35% 30%, #ffffff 0%, #94a3b8 100%); border-radius: 32px;"><defs><radialGradient id="skinOmega" cx="40%" cy="30%" r="80%">
                    <stop offset="0%" stop-color="#f1b794" />
                    <stop offset="60%" stop-color="#bd8f74" />
                    <stop offset="100%" stop-color="#9a755f" />
                 </radialGradient><filter id="microAO" x="-50%" y="-50%" width="200%" height="200%">
                    <feDropShadow dx="0" dy="2" stdDeviation="3" flood-color="#000000" flood-opacity="0.2" />
                 </filter><filter id="organicGrain" x="0" y="0" width="100%" height="100%">
                    <feTurbulence type="fractalNoise" baseFrequency="0.8" numOctaves="4" result="noise" />
                    <feColorMatrix in="noise" type="matrix" values="0 0 0 0 0  0 0 0 0 0  0 0 0 0 0  0 0 0 0.05 0" />
                    <feComposite operator="in" in2="SourceGraphic" />
                 </filter><linearGradient id="bounceLight" x1="0%" y1="100%" x2="0%" y2="0%">
                    <stop offset="0%" stop-color="#ffffff" stop-opacity="0.2" />
                    <stop offset="40%" stop-color="#ffffff" stop-opacity="0" />
                 </linearGradient><clipPath id="eyeClipOmega"><path d="M-28 0 Q0 -18 28 0 Q0 18 -28 0 Z" /></clipPath></defs><path d="M 60 340 Q 200 240 340 340 L 380 400 L 20 400 Z" fill="#020617" /><path d="M 160 230 L 240 230 L 240 340 Q 200 365 160 340 Z" fill="#9a755f" /><path d="M 160 230 Q 200 295 240 230 L 240 270 Q 200 325 160 270 Z" fill="#7a5c4b" opacity="0.4" /><path d="M 118 150 C 118 45, 282 45, 282 150 C 282 275, 248 315, 200 315 C 152 315, 118 275, 118 150 Z" fill="url(#skinOmega)" filter="url(#organicGrain)" /><path d="M 118 150 C 118 275, 248 315, 200 315 C 152 315, 118 275, 118 150" fill="url(#bounceLight)" opacity="0.5" /><ellipse cx="114" cy="190" rx="14" ry="22" fill="#9a755f" /><ellipse cx="286" cy="190" rx="14" ry="22" fill="#9a755f" /><path d="M 118 200 Q 118 315 200 315 Q 282 315 282 200 Q 200 235 118 200" fill="#836350" /><path d="M 170 240 Q 200 228 230 240 Q 200 255 170 240" fill="#684f40" /><g transform="translate(150, 180)"><path d="M-28 0 Q0 -18 28 0 Q0 18 -28 0 Z" fill="#ffffff" /><g clip-path="url(#eyeClipOmega)"><circle cx="0" cy="2" r="14" fill="radial-gradient(circle, #80512c, #6B4425)" /><circle cx="0" cy="2" r="15" fill="none" stroke="#6B4425" stroke-width="4" opacity="0.3" /><circle cx="0" cy="2" r="6" fill="#000000" /><rect x="-12" y="-12" width="10" height="10" rx="3" fill="#ffffff" opacity="0.7" /><circle cx="8" cy="8" r="3" fill="#ffffff" opacity="0.2" /></g><path d="M -30 -4 Q 0 -24 30 -4" fill="none" stroke="#000000" stroke-width="3" stroke-linecap="round" opacity="0.8" /></g><g transform="translate(250, 180)"><path d="M-28 0 Q0 -18 28 0 Q0 18 -28 0 Z" fill="#ffffff" /><g clip-path="url(#eyeClipOmega)"><circle cx="0" cy="2" r="14" fill="radial-gradient(circle, #80512c, #6B4425)" /><circle cx="0" cy="2" r="6" fill="#000000" /><rect x="-12" y="-12" width="10" height="10" rx="3" fill="#ffffff" opacity="0.7" /></g><path d="M -30 -4 Q 0 -24 30 -4" fill="none" stroke="#000000" stroke-width="3" stroke-linecap="round" opacity="0.8" /></g><path d="M 194 220 Q 200 228 206 220" fill="none" stroke="#7a5c4b" stroke-width="2.5" stroke-linecap="round" opacity="0.3" /><path d="M 172 268 Q 200 288 228 268" fill="none" stroke="#7a5c4b" stroke-width="2" stroke-linecap="round" opacity="0.4" /><path d="M 118 150 C 118 40, 282 40, 282 150 Q 200 115 118 150" fill="#836350" filter="url(#microAO)" /><path d="M 140 90 Q 200 40 260 90" fill="none" stroke="#ffeabf" stroke-width="15" opacity="0.25" filter="blur(8px)" /><path d="M 40 400 Q 100 280 200 280 Q 300 280 360 400 Z" fill="#0f172a" /><path d="M 160 280 Q 200 315 240 280 L 260 300 Q 200 340 140 300 Z" fill="#1e293b" /><path d="M 188 310 Q 185 360, 180 400" fill="none" stroke="#64748b" stroke-width="4" stroke-linecap="round" /><path d="M 212 310 Q 215 360, 220 400" fill="none" stroke="#64748b" stroke-width="4" stroke-linecap="round" /><path d="M 118 150 C 118 45, 282 45, 282 150" fill="none" stroke="#ffddb3" stroke-width="3" opacity="0.4" filter="blur(3px)" /></svg>