<?xml version="1.0" encoding="UTF-8"?><svg xmlns="http://www.w3.org/2000/svg" viewBox="0 0 400 400" width="400" height="400" style="background: #ffffff; border-radius: 24px;"><defs><radialGradient id="skinVol" cx="50%" cy="30%" r="70%">
                    <stop offset="0%" stop-color="#e6ae8d" />
                    <stop offset="65%" stop-color="#bd8f74" />
                    <stop offset="90%" stop-color="#a67d66" />
                    <stop offset="100%" stop-color="#886653" />
                 </radialGradient><pattern id="stubblePattern" x="0" y="0" width="4" height="4" patternUnits="userSpaceOnUse">
                    <circle cx="1" cy="1" r="0.6" fill="#9b755f" opacity="0.4" />
                 </pattern><radialGradient id="eyeIris" cx="50%" cy="50%" r="50%">
                    <stop offset="0%" stop-color="#8b5830" />
                    <stop offset="70%" stop-color="#6B4425" />
                    <stop offset="100%" stop-color="#000000" />
                 </radialGradient><filter id="clothSoft" x="-20%" y="-20%" width="140%" height="140%">
                    <feGaussianBlur stdDeviation="1.5" />
                    <feComponentTransfer><feFuncA type="linear" slope="0.9"/></feComponentTransfer>
                 </filter><filter id="globalAO" x="-20%" y="-20%" width="140%" height="140%">
                    <feDropShadow dx="0" dy="6" stdDeviation="10" flood-color="#000000" flood-opacity="0.12" />
                 </filter><clipPath id="eyeMask">
                    <ellipse cx="0" cy="0" rx="26" ry="16" />
                 </clipPath></defs><circle cx="200" cy="180" r="170" fill="#f8fafc" /><path d="M 80 320 Q 200 250 320 320 L 360 400 L 40 400 Z" fill="#0f172a" /><path d="M 168 250 L 232 250 L 232 320 Q 200 345 168 320 Z" fill="#a67d66" /><path d="M 168 250 Q 200 285 232 250 L 232 275 Q 200 310 168 275 Z" fill="#886653" opacity="0.3" /><path d="M 115 155 C 115 55, 285 55, 285 155 C 285 265, 245 305, 200 305 C 155 305, 115 265, 115 155 Z" fill="url(#skinVol)" filter="url(#globalAO)" /><ellipse cx="200" cy="100" rx="40" ry="20" fill="#ffffff" opacity="0.1" filter="blur(15px)" /><ellipse cx="112" cy="190" rx="13" ry="20" fill="#a67d66" /><ellipse cx="288" cy="190" rx="13" ry="20" fill="#a67d66" /><path d="M 115 195 Q 115 305 200 305 Q 285 305 285 195 Q 200 230 115 195" fill="#9b755f" opacity="0.95" /><path d="M 115 195 Q 115 305 200 305 Q 285 305 285 195 Q 200 230 115 195" fill="url(#stubblePattern)" /><path d="M 175 240 Q 200 232 225 240 Q 200 252 175 240" fill="#836350" /><g transform="translate(152, 180)"><ellipse cx="0" cy="0" rx="26" ry="16" fill="#ffffff" /><g clip-path="url(#eyeMask)"><circle cx="0" cy="2" r="13" fill="url(#eyeIris)" /><circle cx="0" cy="2" r="6" fill="#000000" /><circle cx="-6" cy="-4" r="5" fill="#ffffff" opacity="0.8" /><circle cx="4" cy="4" r="2" fill="#ffffff" opacity="0.3" /></g><path d="M -26 -2 Q 0 -22 26 -2" fill="none" stroke="#000000" stroke-width="2.5" stroke-linecap="round" opacity="0.75" /></g><g transform="translate(248, 180)"><ellipse cx="0" cy="0" rx="26" ry="16" fill="#ffffff" /><g clip-path="url(#eyeMask)"><circle cx="0" cy="2" r="13" fill="url(#eyeIris)" /><circle cx="0" cy="2" r="6" fill="#000000" /><circle cx="-6" cy="-4" r="5" fill="#ffffff" opacity="0.8" /><circle cx="4" cy="4" r="2" fill="#ffffff" opacity="0.3" /></g><path d="M -26 -2 Q 0 -22 26 -2" fill="none" stroke="#000000" stroke-width="2.5" stroke-linecap="round" opacity="0.75" /></g><path d="M 194 218 Q 200 226 206 218" fill="none" stroke="#886653" stroke-width="2.2" stroke-linecap="round" opacity="0.4" /><circle cx="200" cy="214" r="4" fill="#ffffff" opacity="0.15" filter="blur(3px)" /><path d="M 175 265 Q 200 282 225 265" fill="none" stroke="#886653" stroke-width="1.8" stroke-linecap="round" opacity="0.5" /><path d="M 115 155 C 115 50, 285 50, 285 155 Q 200 120 115 155" fill="#9b755f" filter="url(#globalAO)" /><path d="M 130 110 Q 200 60 270 110" fill="none" stroke="#ffd4ad" stroke-width="15" opacity="0.15" filter="blur(8px)" /><path d="M 150 90 Q 200 65 250 90" fill="none" stroke="#ffffff" stroke-width="2" opacity="0.1" filter="blur(2px)" /><path d="M 132 150 Q 152 138 172 148" fill="none" stroke="#9b755f" stroke-width="7" stroke-linecap="round" /><path d="M 228 148 Q 248 138 268 150" fill="none" stroke="#9b755f" stroke-width="7" stroke-linecap="round" /><path d="M 60 400 Q 100 280 200 280 Q 300 280 340 400 Z" fill="#1e293b" filter="url(#clothSoft)" /><path d="M 160 280 Q 200 310 240 280 L 255 295 Q 200 325 145 295 Z" fill="#334155" /><path d="M 188 305 Q 185 350, 182 395" fill="none" stroke="#94a3b8" stroke-width="3.5" stroke-linecap="round" /><path d="M 212 305 Q 215 350, 218 395" fill="none" stroke="#94a3b8" stroke-width="3.5" stroke-linecap="round" /><path d="M 115 155 C 115 55, 285 55, 285 155" fill="none" stroke="#ffc8a2" stroke-width="2.5" opacity="0.3" filter="blur(2px)" /></svg>