<?xml version="1.0" encoding="UTF-8"?><svg xmlns="http://www.w3.org/2000/svg" viewBox="0 0 400 460" width="400" height="460"><defs><radialGradient id="gSkin" cx="48%" cy="32%" r="58%"><stop offset="0%"   stop-color="#d4b6a4"/><stop offset="45%"  stop-color="#bd8f74"/><stop offset="100%" stop-color="#886653"/></radialGradient><radialGradient id="gSkinSide" cx="50%" cy="50%" r="50%"><stop offset="0%"   stop-color="#886653" stop-opacity="0"/><stop offset="100%" stop-color="#674e3f"  stop-opacity="0.55"/></radialGradient><radialGradient id="gHair" cx="50%" cy="8%" r="72%"><stop offset="0%"   stop-color="#534842"/><stop offset="100%" stop-color="#0d0602"/></radialGradient><radialGradient id="gIrisL" cx="36%" cy="32%" r="65%"><stop offset="0%"   stop-color="#a68e7c"/><stop offset="60%"  stop-color="#6b4425"/><stop offset="100%" stop-color="#5a391f"/></radialGradient><radialGradient id="gIrisR" cx="36%" cy="32%" r="65%"><stop offset="0%"   stop-color="#a68e7c"/><stop offset="60%"  stop-color="#6b4425"/><stop offset="100%" stop-color="#5a391f"/></radialGradient><radialGradient id="gSclera" cx="50%" cy="50%" r="50%"><stop offset="0%"   stop-color="#FDFAF5"/><stop offset="100%" stop-color="#E8DECE"/></radialGradient><linearGradient id="gLipU" x1="0%" y1="0%" x2="0%" y2="100%"><stop offset="0%"   stop-color="#5a4437"/><stop offset="100%" stop-color="#4c392e"/></linearGradient><linearGradient id="gLipL" x1="0%" y1="0%" x2="0%" y2="100%"><stop offset="0%"   stop-color="#4b392e"/><stop offset="100%" stop-color="#3c2d24"/></linearGradient><linearGradient id="gJacket" x1="0%" y1="0%" x2="0%" y2="100%"><stop offset="0%"   stop-color="#2E3D50"/><stop offset="100%" stop-color="#1A2530"/></linearGradient><radialGradient id="gBg" cx="50%" cy="45%" r="55%"><stop offset="0%"   stop-color="#5BACD4"/><stop offset="100%" stop-color="#2E7BAA"/></radialGradient><clipPath id="clipEL"><ellipse cx="152" cy="195" rx="23" ry="14"/></clipPath><clipPath id="clipER"><ellipse cx="248" cy="195" rx="23" ry="14"/></clipPath><clipPath id="clipFace"><path d="M 120 175 C 120 72, 280 72, 280 175 C 280 278, 248 308, 200 308 C 152 308, 120 278, 120 175 Z"/></clipPath><pattern id="beardTex" x="0" y="0" width="4" height="4" patternUnits="userSpaceOnUse"><line x1="0" y1="0" x2="0" y2="4" stroke="#0d0602" stroke-width="0.6" opacity="0.4"/></pattern></defs><rect width="400" height="460" fill="url(#gBg)" rx="22"/><circle cx="200" cy="270" r="185" fill="#3A90BC" opacity="0.35"/><path d="M 55 460 C 60 355, 128 318, 200 312 C 272 318, 340 355, 345 460 Z" fill="url(#gJacket)"/><path d="M 160 310 Q 200 335 240 310 Q 228 295 200 292 Q 172 295 160 310 Z" fill="#1A2530"/><line x1="200" y1="295" x2="200" y2="460" stroke="#253545" stroke-width="2.5" stroke-dasharray="6,4"/><path d="M 55 460 C 60 395, 90 355, 130 335 C 100 340, 70 370, 55 460 Z" fill="#253545"/><path d="M 345 460 C 340 395, 310 355, 270 335 C 300 340, 330 370, 345 460 Z" fill="#253545"/><rect x="168" y="360" width="64" height="38" rx="6" fill="#1A2530" stroke="#253545" stroke-width="1.5"/><line x1="200" y1="360" x2="200" y2="398" stroke="#253545" stroke-width="1.2"/><path d="M 174 275 L 226 275 L 230 318 Q 200 332 170 318 Z" fill="#886653"/><path d="M 174 275 L 226 275 L 228 290 Q 200 298 172 290 Z" fill="#674e3f" opacity="0.5"/><ellipse cx="115" cy="202" rx="14" ry="21" fill="#bd8f74"/><ellipse cx="117" cy="202" rx="9" ry="15" fill="#886653" opacity="0.45"/><path d="M 115 190 Q 109 202 115 214" fill="none" stroke="#674e3f" stroke-width="1.5" stroke-linecap="round"/><ellipse cx="285" cy="202" rx="14" ry="21" fill="#bd8f74"/><ellipse cx="283" cy="202" rx="9" ry="15" fill="#886653" opacity="0.45"/><path d="M 285 190 Q 291 202 285 214" fill="none" stroke="#674e3f" stroke-width="1.5" stroke-linecap="round"/><path d="M 120 175 C 120 72, 280 72, 280 175 C 280 278, 248 308, 200 308 C 152 308, 120 278, 120 175 Z" fill="url(#gSkin)"/><path d="M 120 175 C 120 72, 280 72, 280 175 C 280 278, 248 308, 200 308 C 152 308, 120 278, 120 175 Z" fill="url(#gSkinSide)"/><path d="M 120 175 C 120 120, 132 85, 148 75 C 134 95, 126 135, 126 175 Z" fill="#674e3f" opacity="0.32" clip-path="url(#clipFace)"/><path d="M 280 175 C 280 120, 268 85, 252 75 C 266 95, 274 135, 274 175 Z" fill="#674e3f" opacity="0.32" clip-path="url(#clipFace)"/><ellipse cx="138" cy="230" rx="22" ry="16" fill="#674e3f" opacity="0.18" clip-path="url(#clipFace)"/><ellipse cx="262" cy="230" rx="22" ry="16" fill="#674e3f" opacity="0.18" clip-path="url(#clipFace)"/><ellipse cx="200" cy="118" rx="38" ry="22" fill="#d4b6a4" opacity="0.28" clip-path="url(#clipFace)"/><path d="M 108 188 C 102 52, 298 52, 292 188 C 268 148, 238 130, 200 128 C 162 130, 132 148, 108 188 Z" fill="url(#gHair)"/><path d="M 108 188 C 102 118, 114 80, 138 66 C 120 96, 114 148, 122 178 Z" fill="#0d0602"/><path d="M 292 188 C 298 118, 286 80, 262 66 C 280 96, 286 148, 278 178 Z" fill="#0d0602"/><path d="M 108 188 C 102 52, 298 52, 292 188" fill="none" stroke="#0d0602" stroke-width="2"/><path d="M 168 84 Q 200 74 232 84" fill="none" stroke="#534842" stroke-width="7" stroke-linecap="round" opacity="0.35"/><path d="M 150 82 Q 200 68 250 82" fill="none" stroke="#534842" stroke-width="2" opacity="0.2"/><path d="M 140 95 Q 200 80 260 95" fill="none" stroke="#534842" stroke-width="1.5" opacity="0.15"/><path d="M 122 218 Q 118 308 200 308 Q 282 308 278 218 Q 245 245 200 248 Q 155 245 122 218 Z" fill="#0d0602" opacity="0.92"/><path d="M 122 218 Q 118 308 200 308 Q 282 308 278 218 Q 245 245 200 248 Q 155 245 122 218 Z" fill="url(#beardTex)" opacity="0.6"/><path d="M 122 218 Q 119 308 200 308 Q 281 308 278 218" fill="none" stroke="#0d0602" stroke-width="1"/><path d="M 178 256 C 185 248, 200 245, 200 245 C 200 245, 215 248, 222 256 C 215 261, 200 263, 185 261 Z" fill="#0d0602"/><path d="M 194 242 L 194 255 M 206 242 L 206 255" fill="none" stroke="#0d0602" stroke-width="1" opacity="0.4"/><path d="M 122 218 C 122 195, 128 180, 138 172 C 130 190, 124 210, 125 240 Z" fill="#0d0602" opacity="0.5"/><path d="M 278 218 C 278 195, 272 180, 262 172 C 270 190, 276 210, 275 240 Z" fill="#0d0602" opacity="0.5"/><path d="M 128 165 Q 142 154, 162 157 Q 150 161, 132 168 Z" fill="#0d0602"/><path d="M 272 165 Q 258 154, 238 157 Q 250 161, 268 168 Z" fill="#0d0602"/><line x1="132" y1="165" x2="136" y2="157" stroke="#120802" stroke-width="0.8" opacity="0.6"/><line x1="140" y1="162" x2="143" y2="155" stroke="#120802" stroke-width="0.8" opacity="0.6"/><line x1="152" y1="159" x2="153" y2="153" stroke="#120802" stroke-width="0.8" opacity="0.6"/><line x1="268" y1="165" x2="264" y2="157" stroke="#120802" stroke-width="0.8" opacity="0.6"/><line x1="260" y1="162" x2="257" y2="155" stroke="#120802" stroke-width="0.8" opacity="0.6"/><line x1="248" y1="159" x2="247" y2="153" stroke="#120802" stroke-width="0.8" opacity="0.6"/><path d="M 128 195 Q 152 178, 176 195 Q 160 202, 144 202 Z" fill="#bd8f74"/><ellipse cx="152" cy="195" rx="23" ry="14" fill="url(#gSclera)"/><circle cx="152" cy="196" r="12" fill="url(#gIrisL)" clip-path="url(#clipEL)"/><line x1="152" y1="196" x2="152" y2="207" stroke="#a68e7c" stroke-width="0.7" opacity="0.4" clip-path="url(#clipEL)"/><line x1="152" y1="196" x2="142" y2="202" stroke="#a68e7c" stroke-width="0.7" opacity="0.4" clip-path="url(#clipEL)"/><line x1="152" y1="196" x2="162" y2="202" stroke="#a68e7c" stroke-width="0.7" opacity="0.4" clip-path="url(#clipEL)"/><line x1="152" y1="196" x2="142" y2="190" stroke="#a68e7c" stroke-width="0.7" opacity="0.4" clip-path="url(#clipEL)"/><line x1="152" y1="196" x2="162" y2="190" stroke="#a68e7c" stroke-width="0.7" opacity="0.4" clip-path="url(#clipEL)"/><circle cx="152" cy="196" r="6.5" fill="#090400" clip-path="url(#clipEL)"/><ellipse cx="145" cy="190" rx="4" ry="3" fill="white" opacity="0.92" clip-path="url(#clipEL)"/><circle cx="157" cy="199" r="1.5" fill="white" opacity="0.5" clip-path="url(#clipEL)"/><path d="M 128 195 Q 152 178, 176 195" fill="none" stroke="#0d0602" stroke-width="3" stroke-linecap="round"/><line x1="130" y1="193" x2="125" y2="186" stroke="#0d0602" stroke-width="1.8" stroke-linecap="round"/><line x1="137" y1="186" x2="133" y2="179" stroke="#0d0602" stroke-width="1.8" stroke-linecap="round"/><line x1="145" y1="182" x2="143" y2="175" stroke="#0d0602" stroke-width="1.8" stroke-linecap="round"/><line x1="152" y1="181" x2="152" y2="174" stroke="#0d0602" stroke-width="1.8" stroke-linecap="round"/><line x1="159" y1="183" x2="161" y2="176" stroke="#0d0602" stroke-width="1.8" stroke-linecap="round"/><line x1="167" y1="187" x2="171" y2="180" stroke="#0d0602" stroke-width="1.8" stroke-linecap="round"/><path d="M 130 197 Q 152 208, 174 197" fill="none" stroke="#886653" stroke-width="1.2" stroke-linecap="round" opacity="0.6"/><path d="M 132 192 Q 152 185, 172 192" fill="none" stroke="#886653" stroke-width="0.8" opacity="0.4"/><path d="M 224 195 Q 248 178, 272 195 Q 256 202, 240 202 Z" fill="#bd8f74"/><ellipse cx="248" cy="195" rx="23" ry="14" fill="url(#gSclera)"/><circle cx="248" cy="196" r="12" fill="url(#gIrisR)" clip-path="url(#clipER)"/><line x1="248" y1="196" x2="248" y2="207" stroke="#a68e7c" stroke-width="0.7" opacity="0.4" clip-path="url(#clipER)"/><line x1="248" y1="196" x2="238" y2="202" stroke="#a68e7c" stroke-width="0.7" opacity="0.4" clip-path="url(#clipER)"/><line x1="248" y1="196" x2="258" y2="202" stroke="#a68e7c" stroke-width="0.7" opacity="0.4" clip-path="url(#clipER)"/><line x1="248" y1="196" x2="238" y2="190" stroke="#a68e7c" stroke-width="0.7" opacity="0.4" clip-path="url(#clipER)"/><line x1="248" y1="196" x2="258" y2="190" stroke="#a68e7c" stroke-width="0.7" opacity="0.4" clip-path="url(#clipER)"/><circle cx="248" cy="196" r="6.5" fill="#090400" clip-path="url(#clipER)"/><ellipse cx="241" cy="190" rx="4" ry="3" fill="white" opacity="0.92" clip-path="url(#clipER)"/><circle cx="253" cy="199" r="1.5" fill="white" opacity="0.5" clip-path="url(#clipER)"/><path d="M 224 195 Q 248 178, 272 195" fill="none" stroke="#0d0602" stroke-width="3" stroke-linecap="round"/><line x1="270" y1="193" x2="275" y2="186" stroke="#0d0602" stroke-width="1.8" stroke-linecap="round"/><line x1="263" y1="186" x2="267" y2="179" stroke="#0d0602" stroke-width="1.8" stroke-linecap="round"/><line x1="255" y1="182" x2="257" y2="175" stroke="#0d0602" stroke-width="1.8" stroke-linecap="round"/><line x1="248" y1="181" x2="248" y2="174" stroke="#0d0602" stroke-width="1.8" stroke-linecap="round"/><line x1="241" y1="183" x2="239" y2="176" stroke="#0d0602" stroke-width="1.8" stroke-linecap="round"/><line x1="233" y1="187" x2="229" y2="180" stroke="#0d0602" stroke-width="1.8" stroke-linecap="round"/><path d="M 226 197 Q 248 208, 270 197" fill="none" stroke="#886653" stroke-width="1.2" stroke-linecap="round" opacity="0.6"/><path d="M 228 192 Q 248 185, 268 192" fill="none" stroke="#886653" stroke-width="0.8" opacity="0.4"/><path d="M 200 175 Q 197 208, 192 222" fill="none" stroke="#886653" stroke-width="1.5" stroke-linecap="round" opacity="0.5"/><ellipse cx="191" cy="228" rx="9" ry="6" fill="#886653" opacity="0.7"/><ellipse cx="209" cy="228" rx="9" ry="6" fill="#886653" opacity="0.7"/><ellipse cx="191" cy="229" rx="5" ry="4" fill="#674e3f"/><ellipse cx="209" cy="229" rx="5" ry="4" fill="#674e3f"/><ellipse cx="200" cy="226" rx="13" ry="9" fill="#886653" opacity="0.28"/><ellipse cx="200" cy="222" rx="5"  ry="3" fill="#d4b6a4" opacity="0.4"/><path d="M 182 225 Q 188 235, 191 228" fill="none" stroke="#674e3f" stroke-width="1.5" stroke-linecap="round" opacity="0.7"/><path d="M 218 225 Q 212 235, 209 228" fill="none" stroke="#674e3f" stroke-width="1.5" stroke-linecap="round" opacity="0.7"/><path d="M 176 273 Q 188 267, 200 270 Q 212 267, 224 273 Q 212 280, 200 278 Q 188 280, 176 273 Z" fill="url(#gLipU)"/><path d="M 188 270 Q 196 264, 200 268 Q 204 264, 212 270" fill="none" stroke="#48362c" stroke-width="1.5" stroke-linecap="round"/><path d="M 179 278 Q 200 290, 221 278 Q 210 295, 200 296 Q 190 295, 179 278 Z" fill="url(#gLipL)" opacity="0.7"/><path d="M 176 273 Q 174 276, 176 278" fill="none" stroke="#48362c" stroke-width="1.2" stroke-linecap="round"/><path d="M 224 273 Q 226 276, 224 278" fill="none" stroke="#48362c" stroke-width="1.2" stroke-linecap="round"/><ellipse cx="200" cy="286" rx="12" ry="4" fill="#81746c" opacity="0.35"/><path d="M 178 276 Q 200 274, 222 276" fill="none" stroke="#3f2f26" stroke-width="1.5" stroke-linecap="round"/></svg>