<?xml version="1.0" encoding="UTF-8"?><svg xmlns="http://www.w3.org/2000/svg" viewBox="0 0 400 400" width="400" height="400" style="background: #ffffff; border-radius: 20px;"><defs><radialGradient id="skinGrad" cx="50%" cy="35%" r="65%">
                    <stop offset="0%" stop-color="#e2ab8b" />
                    <stop offset="70%" stop-color="#bd8f74" />
                    <stop offset="100%" stop-color="#a07962" />
                 </radialGradient><radialGradient id="eyeSclera" cx="50%" cy="50%" r="50%">
                    <stop offset="80%" stop-color="#ffffff" />
                    <stop offset="100%" stop-color="#f1f5f9" />
                 </radialGradient><radialGradient id="irisGrad" cx="50%" cy="50%" r="50%">
                    <stop offset="0%" stop-color="#80512c" />
                    <stop offset="100%" stop-color="#6B4425" />
                 </radialGradient><linearGradient id="hoodieGrad" x1="0%" y1="0%" x2="0%" y2="100%">
                    <stop offset="0%" stop-color="#334155" />
                    <stop offset="100%" stop-color="#1e293b" />
                 </linearGradient><filter id="softShadow" x="-20%" y="-20%" width="140%" height="140%">
                    <feDropShadow dx="0" dy="8" stdDeviation="12" flood-color="#000000" flood-opacity="0.15" />
                 </filter><filter id="subtleBlur">
                    <feGaussianBlur stdDeviation="1" />
                 </filter><clipPath id="eyeClip">
                    <ellipse cx="0" cy="0" rx="28" ry="18" />
                 </clipPath></defs><circle cx="200" cy="180" r="160" fill="#f1f5f9" /><path d="M 100 300 Q 200 260 300 300 L 340 400 L 60 400 Z" fill="#1e293b" /><path d="M 165 260 L 235 260 Q 235 320 200 320 Q 165 320 165 260" fill="#a07962" /><ellipse cx="110" cy="190" rx="15" ry="22" fill="#a07962" /><ellipse cx="290" cy="190" rx="15" ry="22" fill="#a07962" /><path d="M 115 160 C 115 60, 285 60, 285 160 C 285 260, 245 300, 200 300 C 155 300, 115 260, 115 160 Z" fill="url(#skinGrad)" filter="url(#softShadow)" /><g transform="translate(150, 180)"><ellipse cx="0" cy="0" rx="28" ry="18" fill="url(#eyeSclera)" /><g clip-path="url(#eyeClip)"><circle cx="0" cy="2" r="14" fill="url(#irisGrad)" /><circle cx="0" cy="2" r="6" fill="#000000" /><circle cx="-6" cy="-4" r="5" fill="#ffffff" opacity="0.8" /></g><path d="M -30 -2 Q 0 -22 30 -2" fill="none" stroke="#000000" stroke-width="3" stroke-linecap="round" opacity="0.8" /></g><g transform="translate(250, 180)"><ellipse cx="0" cy="0" rx="28" ry="18" fill="url(#eyeSclera)" /><g clip-path="url(#eyeClip)"><circle cx="0" cy="2" r="14" fill="url(#irisGrad)" /><circle cx="0" cy="2" r="6" fill="#000000" /><circle cx="-6" cy="-4" r="5" fill="#ffffff" opacity="0.8" /></g><path d="M -30 -2 Q 0 -22 30 -2" fill="none" stroke="#000000" stroke-width="3" stroke-linecap="round" opacity="0.8" /></g><path d="M 125 150 Q 150 135 175 145" fill="none" stroke="#a77e66" stroke-width="8" stroke-linecap="round" /><path d="M 225 145 Q 250 135 275 150" fill="none" stroke="#a77e66" stroke-width="8" stroke-linecap="round" /><path d="M 192 215 Q 200 225 208 215" fill="none" stroke="#846451" stroke-width="2.5" stroke-linecap="round" opacity="0.4" /><path d="M 198 160 Q 200 220 202 160" fill="none" stroke="#ffffff" stroke-width="2" opacity="0.2" /><path d="M 115 190 Q 115 300 200 300 Q 285 300 285 190 Q 200 220 115 190" fill="#a77e66" opacity="0.9" /><path d="M 175 240 Q 200 230 225 240 Q 200 250 175 240" fill="#a77e66" /><path d="M 115 160 C 115 50, 285 50, 285 160 Q 200 110 115 160" fill="#a77e66" /><path d="M 140 100 Q 200 60 260 100" fill="none" stroke="#ffcfa9" stroke-width="6" opacity="0.2" /><path d="M 170 260 Q 200 280 230 260" fill="none" stroke="#846451" stroke-width="2.5" stroke-linecap="round" opacity="0.5" /><path d="M 60 400 Q 100 280 200 280 Q 300 280 340 400 Z" fill="url(#hoodieGrad)" /><path d="M 160 280 Q 200 310 240 280 L 255 295 Q 200 325 145 295 Z" fill="#475569" /><path d="M 185 305 L 182 390" fill="none" stroke="#94a3b8" stroke-width="4" stroke-linecap="round" /><path d="M 215 305 L 218 390" fill="none" stroke="#94a3b8" stroke-width="4" stroke-linecap="round" /></svg>