<?xml version="1.0" encoding="UTF-8"?><svg xmlns="http://www.w3.org/2000/svg" viewBox="0 0 400 400" width="400" height="400" style="background: #f1f5f9; border-radius: 20px;"><rect x="175" y="260" width="50" height="50" rx="5" fill="#a07962" /><path d="M 115 150 C 115 60, 285 60, 285 150 C 285 260, 245 300, 200 300 C 155 300, 115 260, 115 150 Z" fill="#bd8f74" stroke="#a07962" stroke-width="1" /><circle cx="112" cy="190" r="14" fill="#a07962" /><circle cx="288" cy="190" r="14" fill="#a07962" /><g transform="translate(155, 175)"><ellipse cx="0" cy="0" rx="22" ry="12" fill="#ffffff" /><circle cx="0" cy="0" r="10" fill="#6B4425" /><circle cx="0" cy="0" r="5" fill="#000000" /><circle cx="-4" cy="-4" r="3" fill="#ffffff" opacity="0.6" /></g><g transform="translate(245, 175)"><ellipse cx="0" cy="0" rx="22" ry="12" fill="#ffffff" /><circle cx="0" cy="0" r="10" fill="#6B4425" /><circle cx="0" cy="0" r="5" fill="#000000" /><circle cx="-4" cy="-4" r="3" fill="#ffffff" opacity="0.6" /></g><path d="M 135 150 Q 155 140 175 150" fill="none" stroke="#bf9075" stroke-width="6" stroke-linecap="round" /><path d="M 225 150 Q 245 140 265 150" fill="none" stroke="#bf9075" stroke-width="6" stroke-linecap="round" /><path d="M 195 215 Q 200 222 205 215" fill="none" stroke="#a07962" stroke-width="2.5" stroke-linecap="round" /><path d="M 115 190 Q 115 300 200 300 Q 285 300 285 190 Q 200 215 115 190" fill="#bf9075" opacity="0.9" /><path d="M 178 240 Q 200 230 222 240 Q 200 250 178 240" fill="#bf9075" /><path d="M 180 265 Q 200 275 220 265" fill="none" stroke="#a07962" stroke-width="2" stroke-linecap="round" /><path d="M 115 150 C 115 50, 285 50, 285 150 Q 200 120 115 150 Z" fill="#bf9075" /><path d="M 60 400 Q 100 280 200 280 Q 300 280 340 400 Z" fill="#1e293b" /><path d="M 160 280 Q 200 310 240 280 L 255 295 Q 200 325 145 295 Z" fill="#334155" /></svg>