<?xml version="1.0" encoding="UTF-8"?><svg xmlns="http://www.w3.org/2000/svg" viewBox="0 0 200 240" width="400" height="480"><circle cx="100" cy="120" r="90" fill="#E8F4F8"/><path d="M100 35 C65 35 35 70 35 120 C35 170 65 205 100 205 C135 205 165 170 165 120 C165 70 135 35 100 35 Z" fill="#d2996c" stroke="#a87a56" stroke-width="2"/><ellipse cx="75" cy="110" rx="12" ry="15" fill="white" stroke="#333" stroke-width="1.5"/><circle cx="77" cy="112" r="6" fill="#6B4425"/><circle cx="79" cy="110" r="2.5" fill="white"/><ellipse cx="125" cy="110" rx="12" ry="15" fill="white" stroke="#333" stroke-width="1.5"/><circle cx="123" cy="112" r="6" fill="#6B4425"/><circle cx="121" cy="110" r="2.5" fill="white"/><path d="M100 125 Q95 140 100 148 Q105 140 100 125" fill="#e7a876" stroke="#b2825b" stroke-width="1"/><path d="M80 165 Q100 185 120 165" fill="none" stroke="#D46A6A" stroke-width="4" stroke-linecap="round"/><path d="M50 60 Q100 10 150 60 Q160 40 155 30 Q100 -10 45 30 Q40 40 50 60" fill="#1f130b"/><path d="M45 70 Q30 100 35 130" fill="none" stroke="#1f130b" stroke-width="15" stroke-linecap="round"/><path d="M155 70 Q170 100 165 130" fill="none" stroke="#1f130b" stroke-width="15" stroke-linecap="round"/><path d="M60 95 Q75 88 90 95" fill="none" stroke="#1f130b" stroke-width="3" stroke-linecap="round"/>
                <path d="M110 95 Q125 88 140 95" fill="none" stroke="#1f130b" stroke-width="3" stroke-linecap="round"/></svg>