<?xml version="1.0" encoding="UTF-8"?><svg xmlns="http://www.w3.org/2000/svg" viewBox="0 0 400 400" width="400" height="400"><defs><linearGradient id="bgGrad" x1="0%" y1="0%" x2="100%" y2="100%">
                    <stop offset="0%" stop-color="#E1F5FE" />
                    <stop offset="100%" stop-color="#B3E5FC" />
                 </linearGradient><filter id="shadow" x="-10%" y="-10%" width="120%" height="120%">
                    <feDropShadow dx="0" dy="8" stdDeviation="6" flood-opacity="0.15" />
                 </filter><clipPath id="circleClip">
                    <circle cx="200" cy="200" r="180"/>
                 </clipPath></defs><circle cx="200" cy="200" r="180" fill="url(#bgGrad)"/><g clip-path="url(#circleClip)"><path d="M60 400 C 60 280, 340 280, 340 400 Z" fill="#FF7043"/><rect x="170" y="210" width="60" height="90" rx="10" fill="#cb8f72"/><path d="M170 210 Q 200 260 230 210 L 230 240 Q 200 280 170 240 Z" fill="#a7765e" opacity="0.4"/><circle cx="120" cy="150" r="22" fill="#efa987"/><circle cx="280" cy="150" r="22" fill="#efa987"/><circle cx="115" cy="150" r="12" fill="#cb8f72" opacity="0.5"/><circle cx="285" cy="150" r="12" fill="#cb8f72" opacity="0.5"/><path d="M125 100 C 125 10, 275 10, 275 100 C 275 200, 260 230, 200 230 C 140 230, 125 200, 125 100 Z" fill="#efa987" filter="url(#shadow)"/><circle cx="140" cy="175" r="18" fill="#FF9999" opacity="0.25"/><circle cx="260" cy="175" r="18" fill="#FF9999" opacity="0.25"/><ellipse cx="155" cy="140" rx="18" ry="22" fill="#FFFFFF"/><ellipse cx="245" cy="140" rx="18" ry="22" fill="#FFFFFF"/><circle cx="155" cy="142" r="14" fill="#6B4425"/><circle cx="245" cy="142" r="14" fill="#6B4425"/><circle cx="155" cy="142" r="8" fill="#1A1A1A"/><circle cx="245" cy="142" r="8" fill="#1A1A1A"/><circle cx="150" cy="136" r="4" fill="#FFFFFF" opacity="0.9"/><circle cx="162" cy="148" r="2" fill="#FFFFFF" opacity="0.6"/><circle cx="240" cy="136" r="4" fill="#FFFFFF" opacity="0.9"/><circle cx="252" cy="148" r="2" fill="#FFFFFF" opacity="0.6"/><path d="M132 135 Q 155 110 178 135" fill="none" stroke="#333333" stroke-width="4" stroke-linecap="round"/><path d="M222 135 Q 245 110 268 135" fill="none" stroke="#333333" stroke-width="4" stroke-linecap="round"/><path d="M130 110 Q 150 95 175 115" fill="none" stroke="#eeb28d" stroke-width="8" stroke-linecap="round"/><path d="M225 115 Q 250 95 270 110" fill="none" stroke="#eeb28d" stroke-width="8" stroke-linecap="round"/><path d="M190 170 Q 200 185 210 170" fill="none" stroke="#cb8f72" stroke-width="4" stroke-linecap="round"/><path d="M170 205 Q 200 235 230 205" fill="none" stroke="#E57373" stroke-width="5" stroke-linecap="round"/><path d="M165 200 Q 168 205 172 205" fill="none" stroke="#E57373" stroke-width="3" stroke-linecap="round"/><path d="M228 205 Q 232 205 235 200" fill="none" stroke="#E57373" stroke-width="3" stroke-linecap="round"/><path d="M 95 110 C 95 -10, 305 -10, 305 110 C 315 160, 290 190, 275 175 C 265 120, 260 75, 200 75 C 140 75, 135 120, 125 175 C 110 190, 85 160, 95 110 Z" fill="#eeb28d"/><path d="M 115 85 C 145 30, 255 30, 285 95 C 245 40, 175 60, 115 85 Z" fill="#eeb28d"/><path d="M 135 40 Q 180 10 225 30 Q 180 25 135 40 Z" fill="#ffd5a9" opacity="0.4"/></g></svg>