<?xml version="1.0" encoding="UTF-8"?><svg xmlns="http://www.w3.org/2000/svg" viewBox="0 0 400 440" width="400" height="440"><defs><radialGradient id="gSkin" cx="50%" cy="28%" r="60%"><stop offset="0%" stop-color="#dfa888"/><stop offset="100%" stop-color="#9a755f"/></radialGradient><radialGradient id="gHair" cx="50%" cy="10%" r="70%"><stop offset="0%" stop-color="#321b12"/><stop offset="100%" stop-color="#23130c"/></radialGradient><radialGradient id="gIris" cx="38%" cy="35%" r="65%"><stop offset="0%" stop-color="#905b31"/><stop offset="100%" stop-color="#603d21"/></radialGradient><filter id="fShadow"><feDropShadow dx="0" dy="5" stdDeviation="8" flood-color="#0003"/></filter><clipPath id="clipL"><ellipse cx="152" cy="192" rx="24" ry="15"/></clipPath><clipPath id="clipR"><ellipse cx="248" cy="192" rx="24" ry="15"/></clipPath></defs><rect width="400" height="440" fill="#EEF2F7" rx="20"/><circle cx="200" cy="230" r="170" fill="#DDE4EE"/><path d="M 70 440 C 70 340, 130 310, 200 305 C 270 310, 330 340, 330 440 Z" fill="#2D3A4A"/><path d="M 155 340 Q 200 360 245 340 L 260 380 Q 200 400 140 380 Z" fill="#1E2A38"/><path d="M 162 305 Q 200 325 238 305" fill="none" stroke="#1E2A38" stroke-width="12" stroke-linecap="round"/><line x1="188" y1="330" x2="184" y2="430" stroke="#5B6E80" stroke-width="3.5" stroke-linecap="round"/><line x1="212" y1="330" x2="216" y2="430" stroke="#5B6E80" stroke-width="3.5" stroke-linecap="round"/><path d="M 172 270 L 228 270 L 228 315 Q 200 330 172 315 Z" fill="#9a755f"/><ellipse cx="113" cy="200" rx="15" ry="22" fill="#bd8f74" stroke="#9a755f" stroke-width="1"/><ellipse cx="287" cy="200" rx="15" ry="22" fill="#bd8f74" stroke="#9a755f" stroke-width="1"/><path d="M 118 170 C 118 70, 282 70, 282 170 C 282 275, 248 305, 200 305 C 152 305, 118 275, 118 170 Z" fill="url(#gSkin)" filter="url(#fShadow)"/><path d="M 105 185 C 100 55, 300 55, 295 185 C 270 145 240 130 200 128 C 160 130 130 145 105 185 Z" fill="#23130c"/><path d="M 105 185 C 100 120, 112 80, 135 68 C 118 100 112 145 118 170 Z" fill="#1c0f0a"/><path d="M 295 185 C 300 120, 288 80, 265 68 C 282 100 288 145 282 170 Z" fill="#1c0f0a"/><path d="M 165 82 Q 200 72 235 82" fill="none" stroke="#321b12" stroke-width="8" stroke-linecap="round" opacity="0.3"/><path d="M 118 215 Q 115 305 200 305 Q 285 305 282 215 Q 240 240 200 242 Q 160 240 118 215 Z" fill="#23130c" opacity="0.88"/><path d="M 177 252 Q 200 244 223 252 Q 200 262 177 252 Z" fill="#23130c"/><path d="M 130 162 Q 152 150 172 159" fill="none" stroke="#23130c" stroke-width="7" stroke-linecap="round"/><path d="M 228 159 Q 248 150 270 162" fill="none" stroke="#23130c" stroke-width="7" stroke-linecap="round"/><ellipse cx="152" cy="192" rx="24" ry="15" fill="#fff"/><circle cx="152" cy="193" r="13" fill="url(#gIris)" clip-path="url(#clipL)"/><circle cx="152" cy="193" r="6" fill="#111" clip-path="url(#clipL)"/><circle cx="145" cy="187" r="4" fill="#fff" opacity="0.85" clip-path="url(#clipL)"/><path d="M 128 192 Q 152 176 176 192" fill="none" stroke="#1A0F00" stroke-width="2.8" stroke-linecap="round"/><path d="M 130 194 Q 152 205 174 194" fill="none" stroke="#9a755f" stroke-width="1.2" stroke-linecap="round" opacity="0.5"/><ellipse cx="248" cy="192" rx="24" ry="15" fill="#fff"/><circle cx="248" cy="193" r="13" fill="url(#gIris)" clip-path="url(#clipR)"/><circle cx="248" cy="193" r="6" fill="#111" clip-path="url(#clipR)"/><circle cx="241" cy="187" r="4" fill="#fff" opacity="0.85" clip-path="url(#clipR)"/><path d="M 224 192 Q 248 176 272 192" fill="none" stroke="#1A0F00" stroke-width="2.8" stroke-linecap="round"/><path d="M 226 194 Q 248 205 270 194" fill="none" stroke="#9a755f" stroke-width="1.2" stroke-linecap="round" opacity="0.5"/><path d="M 195 225 Q 188 232 194 236 Q 200 238 206 236 Q 212 232 205 225" fill="none" stroke="#9a755f" stroke-width="2" stroke-linecap="round" stroke-linejoin="round"/><path d="M 175 270 Q 200 284 225 270" fill="none" stroke="#886653" stroke-width="2.2" stroke-linecap="round"/></svg>